<?xml version="1.0" encoding="UTF-8"?>
<svg id="Layer_1" xmlns="http://www.w3.org/2000/svg" version="1.1" viewBox="0 0 800 800">
  <!-- Generator: Adobe Illustrator 30.0.0, SVG Export Plug-In . SVG Version: 2.1.1 Build 123)  -->
  <defs>
    <style>
      .st0 {
        fill: #d17d98;
      }
    </style>
  </defs>
  <path class="st0" d="M613.99,662.83H186.01c-30.39,0-55.03-24.64-55.03-55.03V192.21c0-30.39,24.64-55.03,55.03-55.03h427.99c30.39,0,55.03,24.64,55.03,55.03v415.59c0,30.39-24.64,55.03-55.03,55.03ZM467.3,535.33l-92.67-263h-66.67l-92.33,263h59.67l19-62.33h95.67l19,62.33h58.33ZM307.97,426.33c18-60,29.33-98,33.33-113.33,1,4.33,2.33,10.33,4.67,17.67s12,39.33,29.67,95.67h-67.67ZM524.64,310.33c8.13.7,16.2-1.95,22.33-7.33,5.17-5.19,7.85-12.36,7.33-19.67,0-17.67-10-26.67-29.67-26.67s-29.67,9-29.67,26.67,10,27,29.67,27ZM553.64,335.33h-54.67v200h53l1.67-200Z"/>
</svg>