<?xml version="1.0" encoding="UTF-8"?>
<svg id="Layer_1" xmlns="http://www.w3.org/2000/svg" version="1.1" viewBox="0 0 800 800">
  <!-- Generator: Adobe Illustrator 30.0.0, SVG Export Plug-In . SVG Version: 2.1.1 Build 123)  -->
  <defs>
    <style>
      .st0 {
        fill: none;
      }

      .st1 {
        fill: #d17d98;
      }
    </style>
  </defs>
  <rect class="st0" y="0" width="800" height="800"/>
  <path class="st1" d="M613.99,662.83H186.01c-30.39,0-55.03-24.64-55.03-55.03V192.21c0-30.39,24.64-55.03,55.03-55.03h427.99c30.39,0,55.03,24.64,55.03,55.03v415.59c0,30.39-24.64,55.03-55.03,55.03ZM378.63,287.67c-20.96-15.12-46.55-22.44-72.33-20.67h-83.67v262.33h55.67v-93h23.67c26.87,1.82,53.5-6.11,75-22.33,18.3-16.35,28.12-40.17,26.67-64.67,1.9-23.35-7.37-46.23-25-61.67ZM278.29,313h23.67c11.87-.93,23.68,2.38,33.33,9.33,7.73,7.57,11.65,18.22,10.67,29,1.04,11.3-3.73,22.35-12.67,29.33-10.89,7.36-23.87,10.99-37,10.33h-18v-78ZM569.63,444.33c-3.75-7.51-9.24-14.02-16-19-10.41-7.13-21.59-13.06-33.33-17.67-11.62-4.21-22.78-9.57-33.33-16-4.69-2.54-7.72-7.34-8-12.67,0-8.67,8-13,24.33-13,9.04,0,18.03,1.34,26.67,4,9.52,3.05,18.87,6.61,28,10.67l16.33-39.33c-21.96-10.52-45.99-15.99-70.33-16-20.59-1.17-41.05,3.94-58.67,14.67-13.5,9.34-21.3,24.93-20.67,41.33-.24,9.03,1.46,18.02,5,26.33,3.66,7.38,9.03,13.78,15.67,18.67,10.33,7.35,21.52,13.4,33.33,18l26,12c4.9,2.26,9.4,5.3,13.33,9,2.72,2.87,4.16,6.72,4,10.67,0,11.33-10,17-29.67,17-11.25-.32-22.43-1.89-33.33-4.67-11.42-3.09-22.57-7.1-33.33-12v45c9.31,3.98,19.04,6.89,29,8.67,12.32,2.17,24.82,3.17,37.33,3,22.49,1.56,44.89-4.04,64-16,14.34-11.26,22.3-28.79,21.33-47-.44-9.05-3.07-17.86-7.67-25.67Z"/>
</svg>