<?xml version="1.0" encoding="UTF-8"?>
<svg id="Layer_1" xmlns="http://www.w3.org/2000/svg" version="1.1" viewBox="0 0 800 800">
  <!-- Generator: Adobe Illustrator 30.0.0, SVG Export Plug-In . SVG Version: 2.1.1 Build 123)  -->
  <defs>
    <style>
      .st0 {
        fill: none;
      }

      .st1 {
        fill: #d17d98;
      }
    </style>
  </defs>
  <rect class="st0" y="0" width="800" height="800"/>
  <path class="st1" d="M613.99,662.83H186.01c-30.39,0-55.03-24.64-55.03-55.03V192.21c0-30.39,24.64-55.03,55.03-55.03h427.99c30.39,0,55.03,24.64,55.03,55.03v415.59c0,30.39-24.64,55.03-55.03,55.03ZM316.67,528.27v-261.67h-55.33v261.67h55.33ZM484,502.61h2.33l10.33,25.67h42V249.94h-54.67v64c.17,13.42,1.51,26.81,4,40h-1.67c-12.87-19.07-34.67-30.16-57.67-29.33-22.27-.94-43.54,9.32-56.67,27.33-14.83,22.71-21.96,49.59-20.33,76.67-1.54,26.81,5.47,53.42,20,76,12.63,17.89,33.45,28.18,55.33,27.33,22.94,1.42,44.82-9.84,57-29.33ZM446.33,488.61c-12.09.89-23.7-4.86-30.33-15-7.62-13.47-11.1-28.89-10-44.33-.96-15.64,2.5-31.24,10-45,6.18-9.64,16.88-15.43,28.33-15.33,12.79-1.45,25.41,3.85,33.33,14,7.81,14.01,11.29,30.01,10,46v6c.66,14.53-3.05,28.93-10.67,41.33-7.68,8.75-19.07,13.32-30.67,12.33h0Z"/>
</svg>